<?xml version="1.0" encoding="UTF-8" standalone="no"?>
<!DOCTYPE svg PUBLIC "-//W3C//DTD SVG 1.1//EN" "http://www.w3.org/Graphics/SVG/1.1/DTD/svg11.dtd">
<svg width="1247" height="1155" viewBox="0 0 1247 1155" fill="none" xmlns="http://www.w3.org/2000/svg">
<path d="M843.197 759.496C809.284 719.759 803.292 718.659 757.249 743.756C797.272 709.944 798.39 703.987 773.252 658.238C807.163 697.981 813.147 699.077 859.183 673.978C819.167 707.792 818.058 713.753 843.197 759.496Z" fill="#FFA033" fill-opacity="0.2"/>
<path d="M725.362 840.159C691.453 800.42 685.439 799.335 639.426 824.412C679.419 790.619 680.559 784.648 655.417 738.901C689.347 778.631 695.334 779.725 741.371 754.626C701.354 788.44 700.242 794.404 725.362 840.159Z" fill="#FFA033" fill-opacity="0.2"/>
<path d="M607.55 920.807C573.626 881.078 567.638 879.975 521.591 905.075C561.618 871.26 562.731 865.306 537.605 819.549C571.498 859.305 577.5 860.388 623.525 835.296C583.52 869.103 582.392 875.077 607.55 920.807Z" fill="#FFA033" fill-opacity="0.2"/>
<path d="M924.041 876.533C890.144 836.819 884.144 835.707 838.099 860.801C878.114 826.977 879.221 821.006 854.102 775.283C887.995 815 893.988 816.11 940.033 791.023C900.019 824.84 898.918 830.813 924.041 876.533Z" fill="#FFA033" fill-opacity="0.2"/>
<path d="M736.267 855.946C770.179 895.65 776.176 896.758 822.221 871.67C782.206 905.488 781.102 911.463 806.206 957.196C772.313 917.479 766.291 916.383 720.275 941.457C760.26 907.653 761.39 901.666 736.267 855.946Z" fill="#FFA033" fill-opacity="0.2"/>
<path d="M618.455 936.594C652.329 976.323 658.341 977.421 704.375 952.341C664.372 986.151 663.252 992.137 688.394 1037.84C654.486 998.137 648.49 997.023 602.44 1022.12C642.459 988.293 643.563 982.324 618.455 936.594Z" fill="#FFA033" fill-opacity="0.2"/>
<path d="M934.946 892.32C968.852 932.056 974.846 933.166 1020.88 908.067C980.863 941.878 979.749 947.831 1004.89 993.578C970.976 953.837 964.989 952.744 918.948 977.846C958.971 944.033 960.078 938.062 934.946 892.32Z" fill="#FFA033" fill-opacity="0.2"/>
<path d="M817.111 972.983C851.036 1012.71 857.033 1013.81 903.07 988.715C863.051 1022.53 861.933 1028.48 887.056 1074.24C853.145 1034.5 847.135 1033.42 801.125 1058.5C841.118 1024.71 842.247 1018.72 817.111 972.983Z" fill="#FFA033" fill-opacity="0.2"/>
<path d="M699.299 1053.63C733.186 1093.38 739.199 1094.48 785.224 1069.39C745.216 1103.19 744.084 1109.16 769.244 1154.89C735.317 1115.16 729.334 1114.06 683.29 1139.16C723.317 1105.35 724.42 1099.38 699.299 1053.63Z" fill="#FFA033" fill-opacity="0.2"/>
<path d="M819.613 959.642C859.628 925.824 860.742 919.864 835.615 874.146C869.516 913.858 875.506 914.955 921.551 889.861C881.539 923.688 880.421 929.645 905.55 975.389C871.647 935.651 865.66 934.558 819.613 959.642Z" fill="#FFA033" fill-opacity="0.2"/>
<path d="M701.779 1040.3C741.782 1006.49 742.896 1000.53 717.796 954.799C751.696 994.511 757.682 995.61 803.698 970.537C763.715 1004.34 762.601 1010.3 787.73 1056.04C753.801 1016.32 747.815 1015.23 701.779 1040.3Z" fill="#FFA033" fill-opacity="0.2"/>
<path d="M840.707 772.823C800.692 806.647 799.577 812.608 824.692 858.333C790.803 818.614 784.814 817.517 738.769 842.604C778.781 808.783 779.898 802.827 754.756 757.087C788.672 796.821 794.659 797.914 840.707 772.823Z" fill="#FFA033" fill-opacity="0.2"/>
<path d="M722.853 853.499C682.868 887.303 681.757 893.26 706.873 938.986C672.957 899.284 666.968 898.188 620.934 923.268C660.935 889.454 662.052 883.497 636.936 837.739C670.852 877.473 676.835 878.569 722.853 853.499Z" fill="#FFA033" fill-opacity="0.2"/>
<path d="M1069.16 604.815C1035.25 565.078 1029.25 563.978 983.211 589.075C1023.23 555.263 1024.35 549.306 999.214 503.557C1033.13 543.3 1039.11 544.396 1085.15 519.297C1045.13 553.111 1044.02 559.072 1069.16 604.815Z" fill="#FFA033" fill-opacity="0.2"/>
<path d="M951.324 685.478C917.415 645.739 911.4 644.654 865.387 669.731C905.38 635.939 906.52 629.967 881.379 584.22C915.309 623.951 921.296 625.044 967.333 599.945C927.316 633.759 926.204 639.723 951.324 685.478Z" fill="#FFA033" fill-opacity="0.2"/>
<path d="M1150 721.852C1116.11 682.138 1110.11 681.026 1064.06 706.12C1104.08 672.296 1105.18 666.325 1080.06 620.602C1113.96 660.319 1119.95 661.429 1165.99 636.342C1125.98 670.159 1124.88 676.132 1150 721.852Z" fill="#FFA033" fill-opacity="0.2"/>
<path d="M962.229 701.265C996.141 740.969 1002.14 742.077 1048.18 716.989C1008.17 750.807 1007.06 756.782 1032.17 802.515C998.275 762.798 992.253 761.702 946.237 786.776C986.222 752.972 987.352 746.985 962.229 701.265Z" fill="#FFA033" fill-opacity="0.2"/>
<path d="M1160.91 737.639C1194.81 777.375 1200.81 778.485 1246.84 753.386C1206.82 787.197 1205.71 793.151 1230.85 838.897C1196.94 799.156 1190.95 798.063 1144.91 823.165C1184.93 789.352 1186.04 783.381 1160.91 737.639Z" fill="#FFA033" fill-opacity="0.2"/>
<path d="M1043.07 818.302C1077 858.025 1083 859.133 1129.03 834.034C1089.01 867.844 1087.9 873.801 1113.02 919.56C1079.11 879.817 1073.1 878.739 1027.09 903.82C1067.08 870.028 1068.21 864.041 1043.07 818.302Z" fill="#FFA033" fill-opacity="0.2"/>
<path d="M1045.58 804.961C1085.59 771.143 1086.7 765.183 1061.58 719.465C1095.48 759.177 1101.47 760.274 1147.51 735.18C1107.5 769.007 1106.38 774.964 1131.51 820.708C1097.61 780.97 1091.62 779.877 1045.58 804.961Z" fill="#FFA033" fill-opacity="0.2"/>
<path d="M927.741 885.624C967.743 851.814 968.858 845.854 943.758 800.118C977.658 839.83 983.644 840.929 1029.66 815.856C989.677 849.663 988.563 855.617 1013.69 901.361C979.763 861.641 973.776 860.548 927.741 885.624Z" fill="#FFA033" fill-opacity="0.2"/>
<path d="M1066.67 618.143C1026.65 651.967 1025.54 657.927 1050.65 703.652C1016.76 663.933 1010.78 662.836 964.731 687.923C1004.74 654.102 1005.86 648.146 980.717 602.406C1014.63 642.14 1020.62 643.233 1066.67 618.143Z" fill="#FFA033" fill-opacity="0.2"/>
<path d="M948.815 698.818C908.83 732.622 907.719 738.58 932.835 784.305C898.919 744.604 892.929 743.507 846.896 768.587C886.896 734.773 888.014 728.816 862.898 683.059C896.814 722.793 902.797 723.888 948.815 698.818Z" fill="#FFA033" fill-opacity="0.2"/>
<path d="M583.967 508.453C550.055 468.716 544.063 467.616 498.02 492.713C538.043 458.9 539.16 452.944 514.023 407.195C547.934 446.938 553.917 448.034 599.954 422.935C559.937 456.749 558.829 462.71 583.967 508.453Z" fill="#FFA033" fill-opacity="0.2"/>
<path d="M466.133 589.116C432.224 549.377 426.209 548.292 380.196 573.369C420.189 539.576 421.329 533.605 396.188 487.858C430.118 527.588 436.105 528.682 482.142 503.583C442.125 537.397 441.013 543.36 466.133 589.116Z" fill="#FFA033" fill-opacity="0.2"/>
<path d="M348.32 669.764C314.397 630.035 308.408 628.932 262.362 654.032C302.388 620.216 303.502 614.263 278.376 568.506C312.268 608.262 318.27 609.345 364.296 584.253C324.29 618.06 323.163 624.034 348.32 669.764Z" fill="#FFA033" fill-opacity="0.2"/>
<path d="M664.812 625.49C630.915 585.776 624.915 584.664 578.869 609.758C618.885 575.934 619.992 569.963 594.872 524.24C628.765 563.957 634.759 565.067 680.803 539.98C640.789 573.797 639.688 579.77 664.812 625.49Z" fill="#FFA033" fill-opacity="0.2"/>
<path d="M477.038 604.903C510.949 644.607 516.947 645.715 562.991 620.627C522.977 654.445 521.873 660.42 546.977 706.153C513.084 666.436 507.061 665.34 461.046 690.413C501.031 656.61 502.161 650.623 477.038 604.903Z" fill="#FFA033" fill-opacity="0.2"/>
<path d="M359.225 685.551C393.1 725.28 399.112 726.378 445.145 701.298C405.142 735.108 404.023 741.093 429.165 786.801C395.257 747.094 389.26 745.98 343.211 771.077C383.23 737.25 384.334 731.281 359.225 685.551Z" fill="#FFA033" fill-opacity="0.2"/>
<path d="M675.717 641.277C709.623 681.012 715.616 682.123 761.653 657.024C721.634 690.835 720.52 696.788 745.661 742.535C711.746 702.794 705.759 701.701 659.719 726.803C699.742 692.99 700.849 687.018 675.717 641.277Z" fill="#FFA033" fill-opacity="0.2"/>
<path d="M557.882 721.94C591.807 761.663 597.804 762.771 643.841 737.672C603.821 771.482 602.704 777.439 627.827 823.198C593.915 783.455 587.906 782.377 541.895 807.458C581.888 773.666 583.018 767.679 557.882 721.94Z" fill="#FFA033" fill-opacity="0.2"/>
<path d="M440.07 802.588C473.957 842.336 479.969 843.434 525.995 818.343C485.987 852.145 484.854 858.112 510.014 903.846C476.088 864.113 470.105 863.017 424.061 888.121C464.087 854.306 465.191 848.337 440.07 802.588Z" fill="#FFA033" fill-opacity="0.2"/>
<path d="M560.384 708.599C600.398 674.781 601.513 668.821 576.386 623.103C610.287 662.815 616.276 663.912 662.322 638.818C622.309 672.645 621.192 678.602 646.32 724.346C612.418 684.608 606.431 683.515 560.384 708.599Z" fill="#FFA033" fill-opacity="0.2"/>
<path d="M442.549 789.262C482.552 755.452 483.667 749.492 458.566 703.756C492.467 743.468 498.453 744.567 544.468 719.494C504.486 753.301 503.372 759.255 528.501 804.999C494.572 765.279 488.585 764.185 442.549 789.262Z" fill="#FFA033" fill-opacity="0.2"/>
<path d="M581.478 521.78C541.462 555.604 540.347 561.565 565.463 607.29C531.574 567.571 525.584 566.474 479.54 591.561C519.551 557.74 520.669 551.783 495.526 506.043C529.442 545.778 535.429 546.871 581.478 521.78Z" fill="#FFA033" fill-opacity="0.2"/>
<path d="M463.624 602.456C423.639 636.26 422.528 642.217 447.643 687.943C413.728 648.241 407.738 647.144 361.705 672.224C401.705 638.411 402.823 632.454 377.707 586.696C411.623 626.43 417.606 627.526 463.624 602.456Z" fill="#FFA033" fill-opacity="0.2"/>
<path d="M809.929 353.772C776.017 314.035 770.025 312.935 723.982 338.032C764.005 304.22 765.122 298.263 739.985 252.514C773.896 292.257 779.879 293.353 825.916 268.254C785.899 302.068 784.791 308.029 809.929 353.772Z" fill="#FFA033" fill-opacity="0.2"/>
<path d="M692.094 434.435C658.186 394.696 652.171 393.611 606.158 418.688C646.151 384.895 647.291 378.924 622.15 333.177C656.08 372.907 662.067 374.001 708.104 348.902C668.087 382.716 666.974 388.68 692.094 434.435Z" fill="#FFA033" fill-opacity="0.2"/>
<path d="M890.774 470.809C856.877 431.095 850.877 429.983 804.831 455.077C844.846 421.253 845.954 415.282 820.834 369.559C854.727 409.276 860.721 410.386 906.765 385.299C866.751 419.116 865.65 425.089 890.774 470.809Z" fill="#FFA033" fill-opacity="0.2"/>
<path d="M702.999 450.222C736.911 489.926 742.909 491.034 788.953 465.946C748.939 499.764 747.834 505.739 772.939 551.472C739.046 511.755 733.023 510.659 687.008 535.732C726.993 501.929 728.123 495.942 702.999 450.222Z" fill="#FFA033" fill-opacity="0.2"/>
<path d="M901.679 486.596C935.585 526.332 941.578 527.442 987.615 502.343C947.596 536.154 946.482 542.107 971.623 587.854C937.708 548.113 931.721 547.02 885.681 572.122C925.704 538.309 926.811 532.338 901.679 486.596Z" fill="#FFA033" fill-opacity="0.2"/>
<path d="M783.844 567.259C817.769 606.982 823.766 608.09 869.803 582.991C829.783 616.801 828.666 622.758 853.788 668.517C819.877 628.774 813.868 627.696 767.857 652.777C807.85 618.985 808.98 612.998 783.844 567.259Z" fill="#FFA033" fill-opacity="0.2"/>
<path d="M786.346 553.918C826.36 520.1 827.475 514.14 802.348 468.422C836.249 508.134 842.238 509.231 888.284 484.137C848.271 517.964 847.154 523.921 872.282 569.665C838.38 529.927 832.393 528.834 786.346 553.918Z" fill="#FFA033" fill-opacity="0.2"/>
<path d="M668.511 634.581C708.514 600.771 709.629 594.811 684.528 549.075C718.429 588.787 724.415 589.886 770.43 564.813C730.448 598.62 729.334 604.574 754.462 650.318C720.534 610.598 714.547 609.505 668.511 634.581Z" fill="#FFA033" fill-opacity="0.2"/>
<path d="M807.439 367.099C767.424 400.923 766.309 406.884 791.425 452.609C757.536 412.89 751.546 411.793 705.502 436.88C745.513 403.059 746.631 397.103 721.488 351.363C755.404 391.097 761.391 392.19 807.439 367.099Z" fill="#FFA033" fill-opacity="0.2"/>
<path d="M689.586 447.775C649.601 481.579 648.489 487.537 673.605 533.262C639.69 493.56 633.7 492.464 587.667 517.544C627.667 483.73 628.785 477.773 603.668 432.015C637.584 471.749 643.568 472.845 689.586 447.775Z" fill="#FFA033" fill-opacity="0.2"/>
<path d="M322.575 256.22C288.663 216.484 282.671 215.383 236.628 240.481C276.651 206.668 277.768 200.712 252.631 154.963C286.542 194.706 292.525 195.801 338.562 170.702C298.545 204.516 297.437 210.478 322.575 256.22Z" fill="#FFA033" fill-opacity="0.2"/>
<path d="M204.741 336.883C170.832 297.144 164.818 296.059 118.804 321.136C158.797 287.344 159.937 281.372 134.796 235.626C168.726 275.356 174.713 276.449 220.75 251.35C180.733 285.164 179.621 291.128 204.741 336.883Z" fill="#FFA033" fill-opacity="0.2"/>
<path d="M86.9285 417.531C53.0049 377.802 47.0165 376.699 0.969709 401.799C40.9965 367.984 42.1102 362.03 16.984 316.273C50.8764 356.029 56.8784 357.112 102.904 332.021C62.8984 365.827 61.7711 371.801 86.9285 417.531Z" fill="#FFA033" fill-opacity="0.2"/>
<path d="M403.42 373.258C369.523 333.543 363.523 332.432 317.477 357.526C357.493 323.702 358.6 317.73 333.48 272.007C367.374 311.724 373.367 312.835 419.412 287.747C379.397 321.565 378.297 327.537 403.42 373.258Z" fill="#FFA033" fill-opacity="0.2"/>
<path d="M215.646 352.67C249.558 392.374 255.555 393.483 301.599 368.395C261.585 402.213 260.481 408.188 285.585 453.921C251.692 414.204 245.67 413.107 199.654 438.181C239.639 404.377 240.769 398.391 215.646 352.67Z" fill="#FFA033" fill-opacity="0.2"/>
<path d="M97.8335 433.318C131.708 473.048 137.72 474.146 183.753 449.066C143.751 482.876 142.631 488.861 167.773 534.568C133.865 494.862 127.869 493.747 81.8193 518.844C121.838 485.017 122.942 479.049 97.8335 433.318Z" fill="#FFA033" fill-opacity="0.2"/>
<path d="M414.325 389.045C448.231 428.78 454.224 429.891 500.261 404.792C460.242 438.602 459.128 444.556 484.269 490.302C450.355 450.562 444.368 449.469 398.327 474.57C438.35 440.757 439.457 434.786 414.325 389.045Z" fill="#FFA033" fill-opacity="0.2"/>
<path d="M296.49 469.708C330.415 509.43 336.412 510.538 382.449 485.439C342.43 519.25 341.312 525.206 366.435 570.965C332.524 531.222 326.514 530.145 280.504 555.226C320.497 521.433 321.626 515.447 296.49 469.708Z" fill="#FFA033" fill-opacity="0.2"/>
<path d="M178.678 550.355C212.565 590.104 218.577 591.202 264.603 566.11C224.595 599.913 223.462 605.88 248.622 651.613C214.696 611.88 208.713 610.785 162.669 635.889C202.696 602.073 203.799 596.105 178.678 550.355Z" fill="#FFA033" fill-opacity="0.2"/>
<path d="M298.992 456.366C339.006 422.548 340.121 416.588 314.994 370.871C348.895 410.582 354.885 411.679 400.93 386.585C360.917 420.413 359.8 426.369 384.929 472.113C351.026 432.375 345.039 431.282 298.992 456.366Z" fill="#FFA033" fill-opacity="0.2"/>
<path d="M181.158 537.029C221.16 503.219 222.275 497.259 197.175 451.523C231.075 491.235 237.061 492.335 283.077 467.261C243.094 501.068 241.98 507.022 267.109 552.766C233.18 513.046 227.193 511.953 181.158 537.029Z" fill="#FFA033" fill-opacity="0.2"/>
<path d="M320.086 269.548C280.07 303.372 278.956 309.332 304.071 355.057C270.182 315.338 264.192 314.241 218.148 339.329C258.159 305.507 259.277 299.551 234.134 253.811C268.051 293.545 274.038 294.638 320.086 269.548Z" fill="#FFA033" fill-opacity="0.2"/>
<path d="M202.232 350.224C162.247 384.027 161.136 389.985 186.252 435.71C152.336 396.009 146.346 394.912 100.313 419.992C140.313 386.178 141.431 380.222 116.315 334.464C150.231 374.198 156.214 375.294 202.232 350.224Z" fill="#FFA033" fill-opacity="0.2"/>
<path d="M548.537 101.539C514.625 61.8028 508.633 60.7022 462.59 85.7999C502.613 51.9871 503.73 46.0306 478.593 0.281758C512.504 40.0247 518.487 41.1204 564.524 16.0215C524.507 49.8355 523.399 55.7968 548.537 101.539Z" fill="#FFA033" fill-opacity="0.2"/>
<path d="M430.703 182.203C396.794 142.463 390.779 141.378 344.766 166.455C384.759 132.663 385.899 126.691 360.758 80.9449C394.688 120.675 400.675 121.768 446.712 96.6692C406.695 130.483 405.583 136.447 430.703 182.203Z" fill="#FFA033" fill-opacity="0.2"/>
<path d="M629.382 218.577C595.485 178.862 589.485 177.751 543.439 202.845C583.455 169.021 584.562 163.049 559.442 117.326C593.335 157.043 599.329 158.154 645.373 133.066C605.359 166.884 604.258 172.856 629.382 218.577Z" fill="#FFA033" fill-opacity="0.2"/>
<path d="M441.608 197.99C475.519 237.694 481.517 238.802 527.561 213.714C487.547 247.532 486.442 253.507 511.547 299.24C477.654 259.523 471.631 258.427 425.616 283.5C465.601 249.697 466.731 243.71 441.608 197.99Z" fill="#FFA033" fill-opacity="0.2"/>
<path d="M640.287 234.364C674.193 274.099 680.186 275.21 726.223 250.111C686.204 283.921 685.09 289.875 710.231 335.621C676.316 295.881 670.329 294.788 624.289 319.889C664.312 286.076 665.419 280.105 640.287 234.364Z" fill="#FFA033" fill-opacity="0.2"/>
<path d="M522.452 315.027C556.377 354.749 562.374 355.858 608.411 330.759C568.391 364.569 567.274 370.525 592.397 416.284C558.485 376.541 552.476 375.464 506.465 400.545C546.458 366.752 547.588 360.766 522.452 315.027Z" fill="#FFA033" fill-opacity="0.2"/>
<path d="M524.954 301.685C564.968 267.867 566.083 261.907 540.956 216.19C574.857 255.901 580.846 256.998 626.892 231.904C586.879 265.732 585.762 271.688 610.89 317.432C576.988 277.694 571.001 276.601 524.954 301.685Z" fill="#FFA033" fill-opacity="0.2"/>
<path d="M407.119 382.348C447.122 348.538 448.237 342.578 423.136 296.843C457.037 336.554 463.023 337.654 509.038 312.58C469.056 346.387 467.942 352.341 493.071 398.085C459.142 358.365 453.155 357.272 407.119 382.348Z" fill="#FFA033" fill-opacity="0.2"/>
<path d="M546.048 114.867C506.032 148.691 504.917 154.651 530.033 200.377C496.144 160.657 490.154 159.56 444.11 184.648C484.121 150.827 485.239 144.87 460.096 99.1301C494.012 138.864 499.999 139.957 546.048 114.867Z" fill="#FFA033" fill-opacity="0.2"/>
<path d="M428.194 195.543C388.209 229.346 387.098 235.304 412.213 281.029C378.298 241.328 372.308 240.231 326.275 265.311C366.275 231.497 367.393 225.541 342.277 179.783C376.193 219.517 382.176 220.613 428.194 195.543Z" fill="#FFA033" fill-opacity="0.2"/>
</svg>
