<?xml version="1.0" encoding="UTF-8" standalone="no"?>
<!DOCTYPE svg PUBLIC "-//W3C//DTD SVG 1.1//EN" "http://www.w3.org/Graphics/SVG/1.1/DTD/svg11.dtd">
<svg width="748" height="1010" viewBox="0 0 748 1010" fill="none" xmlns="http://www.w3.org/2000/svg">
<path d="M443.831 752.317C439.011 705.371 435.109 701.491 387.844 696.703C435.109 691.919 439.011 688.047 443.831 641.097C448.648 688.047 452.545 691.919 499.807 696.703C452.545 701.491 448.648 705.371 443.831 752.317Z" fill="white" fill-opacity="0.1"/>
<path d="M314.403 752.317C309.587 705.371 305.661 701.491 258.428 696.703C305.661 691.919 309.587 688.047 314.403 641.097C319.24 688.047 323.142 691.919 370.403 696.703C323.142 701.491 319.24 705.371 314.403 752.317Z" fill="white" fill-opacity="0.1"/>
<path d="M185 752.317C180.167 705.371 176.27 701.491 129 696.703C176.27 691.919 180.167 688.047 185 641.097C189.796 688.047 193.714 691.919 240.963 696.703C193.714 701.491 189.796 705.371 185 752.317Z" fill="white" fill-opacity="0.1"/>
<path d="M443.831 880.869C439.011 833.948 435.109 830.056 387.844 825.263C435.109 820.467 439.011 816.579 443.831 769.657C448.648 816.579 452.545 820.467 499.807 825.263C452.545 830.056 448.648 833.948 443.831 880.869Z" fill="white" fill-opacity="0.1"/>
<path d="M314.403 769.657C319.24 816.579 323.142 820.467 370.403 825.263C323.142 830.056 319.24 833.948 314.403 880.869C309.587 833.948 305.661 830.056 258.428 825.263C305.661 820.467 309.587 816.579 314.403 769.657Z" fill="white" fill-opacity="0.1"/>
<path d="M185 769.657C189.796 816.579 193.714 820.467 240.963 825.263C193.714 830.056 189.796 833.948 185 880.869C180.167 833.948 176.27 830.056 129 825.263C176.27 820.467 180.167 816.579 185 769.657Z" fill="white" fill-opacity="0.1"/>
<path d="M443.831 898.209C448.648 945.151 452.545 949.039 499.807 953.824C452.545 958.608 448.648 962.479 443.831 1009.43C439.011 962.479 435.109 958.608 387.844 953.824C435.109 949.039 439.011 945.151 443.831 898.209Z" fill="white" fill-opacity="0.1"/>
<path d="M314.403 898.209C319.24 945.151 323.142 949.039 370.403 953.824C323.142 958.608 319.24 962.479 314.403 1009.43C309.587 962.479 305.661 958.608 258.428 953.824C305.661 949.039 309.587 945.151 314.403 898.209Z" fill="white" fill-opacity="0.1"/>
<path d="M185 898.209C189.796 945.151 193.714 949.039 240.963 953.824C193.714 958.608 189.796 962.479 185 1009.43C180.167 962.479 176.27 958.608 129 953.824C176.27 949.039 180.167 945.151 185 898.209Z" fill="white" fill-opacity="0.1"/>
<path d="M323.142 889.537C370.403 884.745 374.305 880.869 379.117 833.948C383.942 880.869 387.844 884.745 435.109 889.537C387.844 894.338 383.942 898.209 379.117 945.151C374.305 898.209 370.403 894.338 323.142 889.537Z" fill="white" fill-opacity="0.1"/>
<path d="M193.714 889.537C240.963 884.745 244.865 880.869 249.706 833.948C254.53 880.869 258.428 884.745 305.661 889.537C258.428 894.338 254.53 898.209 249.706 945.151C244.865 898.209 240.963 894.338 193.714 889.537Z" fill="white" fill-opacity="0.1"/>
<path d="M435.109 760.985C387.844 765.782 383.942 769.657 379.117 816.579C374.305 769.657 370.403 765.782 323.142 760.985C370.403 756.189 374.305 752.317 379.117 705.371C383.942 752.317 387.844 756.189 435.109 760.985Z" fill="white" fill-opacity="0.1"/>
<path d="M305.661 760.985C258.428 765.782 254.53 769.657 249.706 816.579C244.865 769.657 240.963 765.782 193.714 760.985C240.963 756.189 244.865 752.317 249.706 705.371C254.53 752.317 258.428 756.189 305.661 760.985Z" fill="white" fill-opacity="0.1"/>
<path d="M692.025 752.317C687.204 705.371 683.302 701.491 636.037 696.703C683.302 691.919 687.204 688.047 692.025 641.097C696.841 688.047 700.739 691.919 748 696.703C700.739 701.491 696.841 705.371 692.025 752.317Z" fill="white" fill-opacity="0.1"/>
<path d="M562.597 752.317C557.78 705.371 553.854 701.491 506.621 696.703C553.854 691.919 557.78 688.047 562.597 641.097C567.434 688.047 571.335 691.919 618.597 696.703C571.335 701.491 567.434 705.371 562.597 752.317Z" fill="white" fill-opacity="0.1"/>
<path d="M692.025 880.869C687.204 833.948 683.302 830.056 636.037 825.263C683.302 820.467 687.204 816.579 692.025 769.657C696.841 816.579 700.739 820.467 748 825.263C700.739 830.056 696.841 833.948 692.025 880.869Z" fill="white" fill-opacity="0.1"/>
<path d="M562.597 769.657C567.434 816.579 571.335 820.467 618.597 825.263C571.335 830.056 567.434 833.948 562.597 880.869C557.78 833.948 553.854 830.056 506.621 825.263C553.854 820.467 557.78 816.579 562.597 769.657Z" fill="white" fill-opacity="0.1"/>
<path d="M692.025 898.209C696.841 945.151 700.739 949.039 748 953.824C700.739 958.608 696.841 962.479 692.025 1009.43C687.204 962.479 683.302 958.608 636.037 953.824C683.302 949.039 687.204 945.151 692.025 898.209Z" fill="white" fill-opacity="0.1"/>
<path d="M562.597 898.209C567.434 945.151 571.335 949.039 618.597 953.824C571.335 958.608 567.434 962.479 562.597 1009.43C557.78 962.479 553.854 958.608 506.621 953.824C553.854 949.039 557.78 945.151 562.597 898.209Z" fill="white" fill-opacity="0.1"/>
<path d="M571.335 889.537C618.597 884.745 622.498 880.869 627.311 833.948C632.135 880.869 636.037 884.745 683.302 889.537C636.037 894.338 632.135 898.209 627.311 945.151C622.498 898.209 618.597 894.338 571.335 889.537Z" fill="white" fill-opacity="0.1"/>
<path d="M441.907 889.537C489.156 884.745 493.058 880.869 497.899 833.948C502.724 880.869 506.621 884.745 553.854 889.537C506.621 894.338 502.724 898.209 497.899 945.151C493.058 898.209 489.156 894.338 441.907 889.537Z" fill="white" fill-opacity="0.1"/>
<path d="M683.302 760.985C636.037 765.782 632.135 769.657 627.311 816.579C622.498 769.657 618.597 765.782 571.335 760.985C618.597 756.189 622.498 752.317 627.311 705.371C632.135 752.317 636.037 756.189 683.302 760.985Z" fill="white" fill-opacity="0.1"/>
<path d="M553.854 760.985C506.621 765.782 502.724 769.657 497.899 816.579C493.058 769.657 489.156 765.782 441.907 760.985C489.156 756.189 493.058 752.317 497.899 705.371C502.724 752.317 506.621 756.189 553.854 760.985Z" fill="white" fill-opacity="0.1"/>
<path d="M379.831 432.764C375.011 385.818 371.109 381.938 323.844 377.15C371.109 372.366 375.011 368.494 379.831 321.544C384.648 368.494 388.545 372.366 435.807 377.15C388.545 381.938 384.648 385.818 379.831 432.764Z" fill="white" fill-opacity="0.1"/>
<path d="M250.403 432.764C245.587 385.818 241.661 381.938 194.428 377.15C241.661 372.366 245.587 368.494 250.403 321.544C255.24 368.494 259.142 372.366 306.403 377.15C259.142 381.938 255.24 385.818 250.403 432.764Z" fill="white" fill-opacity="0.1"/>
<path d="M121 432.764C116.167 385.818 112.27 381.938 65 377.15C112.27 372.366 116.167 368.494 121 321.544C125.796 368.494 129.714 372.366 176.963 377.15C129.714 381.938 125.796 385.818 121 432.764Z" fill="white" fill-opacity="0.1"/>
<path d="M379.831 561.316C375.011 514.395 371.109 510.503 323.844 505.71C371.109 500.914 375.011 497.026 379.831 450.104C384.648 497.026 388.545 500.914 435.807 505.71C388.545 510.503 384.648 514.395 379.831 561.316Z" fill="white" fill-opacity="0.1"/>
<path d="M250.403 450.104C255.24 497.026 259.142 500.914 306.403 505.71C259.142 510.503 255.24 514.395 250.403 561.316C245.587 514.395 241.661 510.503 194.428 505.71C241.661 500.914 245.587 497.026 250.403 450.104Z" fill="white" fill-opacity="0.1"/>
<path d="M121 450.104C125.796 497.026 129.714 500.914 176.963 505.71C129.714 510.503 125.796 514.395 121 561.316C116.167 514.395 112.27 510.503 65 505.71C112.27 500.914 116.167 497.026 121 450.104Z" fill="white" fill-opacity="0.1"/>
<path d="M379.831 578.656C384.648 625.598 388.545 629.486 435.807 634.271C388.545 639.055 384.648 642.926 379.831 689.876C375.011 642.926 371.109 639.055 323.844 634.27C371.109 629.486 375.011 625.598 379.831 578.656Z" fill="white" fill-opacity="0.1"/>
<path d="M250.403 578.656C255.24 625.598 259.142 629.486 306.403 634.27C259.142 639.055 255.24 642.926 250.403 689.876C245.587 642.926 241.661 639.055 194.428 634.27C241.661 629.486 245.587 625.598 250.403 578.656Z" fill="white" fill-opacity="0.1"/>
<path d="M121 578.656C125.796 625.598 129.714 629.486 176.963 634.27C129.714 639.055 125.796 642.926 121 689.876C116.167 642.926 112.27 639.055 65 634.27C112.27 629.486 116.167 625.598 121 578.656Z" fill="white" fill-opacity="0.1"/>
<path d="M259.142 569.984C306.403 565.192 310.305 561.316 315.117 514.395C319.942 561.316 323.844 565.192 371.109 569.984C323.844 574.785 319.942 578.656 315.117 625.598C310.305 578.656 306.403 574.785 259.142 569.984Z" fill="white" fill-opacity="0.1"/>
<path d="M129.714 569.984C176.963 565.192 180.865 561.316 185.706 514.395C190.53 561.316 194.428 565.192 241.661 569.984C194.428 574.785 190.53 578.656 185.706 625.598C180.865 578.656 176.963 574.785 129.714 569.984Z" fill="white" fill-opacity="0.1"/>
<path d="M371.109 441.432C323.844 446.229 319.942 450.104 315.117 497.026C310.305 450.104 306.403 446.229 259.142 441.432C306.403 436.636 310.305 432.764 315.117 385.818C319.942 432.764 323.844 436.636 371.109 441.432Z" fill="white" fill-opacity="0.1"/>
<path d="M241.661 441.432C194.428 446.229 190.53 450.104 185.706 497.026C180.865 450.104 176.963 446.229 129.714 441.432C176.963 436.636 180.865 432.764 185.706 385.818C190.53 432.764 194.428 436.636 241.661 441.432Z" fill="white" fill-opacity="0.1"/>
<path d="M628.025 432.764C623.204 385.818 619.302 381.938 572.037 377.15C619.302 372.366 623.204 368.494 628.025 321.544C632.841 368.494 636.739 372.366 684 377.15C636.739 381.938 632.841 385.818 628.025 432.764Z" fill="white" fill-opacity="0.1"/>
<path d="M498.597 432.764C493.78 385.818 489.854 381.938 442.621 377.15C489.854 372.366 493.78 368.494 498.597 321.544C503.434 368.494 507.335 372.366 554.597 377.15C507.335 381.938 503.434 385.818 498.597 432.764Z" fill="white" fill-opacity="0.1"/>
<path d="M628.025 561.316C623.204 514.395 619.302 510.503 572.037 505.71C619.302 500.914 623.204 497.026 628.025 450.104C632.841 497.026 636.739 500.914 684 505.71C636.739 510.503 632.841 514.395 628.025 561.316Z" fill="white" fill-opacity="0.1"/>
<path d="M498.597 450.104C503.434 497.026 507.335 500.914 554.597 505.71C507.335 510.503 503.434 514.395 498.597 561.316C493.78 514.395 489.854 510.503 442.621 505.71C489.854 500.914 493.78 497.026 498.597 450.104Z" fill="white" fill-opacity="0.1"/>
<path d="M628.025 578.656C632.841 625.598 636.739 629.486 684 634.271C636.739 639.055 632.841 642.926 628.025 689.876C623.204 642.926 619.302 639.055 572.037 634.271C619.302 629.486 623.204 625.598 628.025 578.656Z" fill="white" fill-opacity="0.1"/>
<path d="M498.597 578.656C503.434 625.598 507.335 629.486 554.597 634.271C507.335 639.055 503.434 642.926 498.597 689.876C493.78 642.926 489.854 639.055 442.621 634.271C489.854 629.486 493.78 625.598 498.597 578.656Z" fill="white" fill-opacity="0.1"/>
<path d="M507.335 569.984C554.597 565.192 558.498 561.316 563.311 514.395C568.135 561.316 572.037 565.192 619.302 569.984C572.037 574.785 568.135 578.656 563.311 625.598C558.498 578.656 554.597 574.785 507.335 569.984Z" fill="white" fill-opacity="0.1"/>
<path d="M377.907 569.984C425.156 565.192 429.058 561.316 433.899 514.395C438.724 561.316 442.621 565.192 489.854 569.984C442.621 574.785 438.724 578.656 433.899 625.598C429.058 578.656 425.156 574.785 377.907 569.984Z" fill="white" fill-opacity="0.1"/>
<path d="M619.302 441.432C572.037 446.229 568.135 450.104 563.311 497.026C558.498 450.104 554.597 446.229 507.335 441.432C554.597 436.636 558.498 432.764 563.311 385.818C568.135 432.764 572.037 436.636 619.302 441.432Z" fill="white" fill-opacity="0.1"/>
<path d="M489.854 441.432C442.621 446.229 438.724 450.104 433.899 497.026C429.058 450.104 425.156 446.229 377.907 441.432C425.156 436.636 429.058 432.764 433.899 385.818C438.724 432.764 442.621 436.636 489.854 441.432Z" fill="white" fill-opacity="0.1"/>
<path d="M314.831 111.22C310.011 64.274 306.109 60.3942 258.844 55.6059C306.109 50.8217 310.011 46.9501 314.831 2.25258e-05C319.648 46.9501 323.545 50.8217 370.807 55.6059C323.545 60.3942 319.648 64.274 314.831 111.22Z" fill="white" fill-opacity="0.1"/>
<path d="M185.403 111.22C180.587 64.274 176.661 60.3942 129.428 55.6059C176.661 50.8217 180.587 46.9501 185.403 1.12618e-05C190.24 46.9501 194.142 50.8217 241.403 55.6059C194.142 60.3942 190.24 64.274 185.403 111.22Z" fill="white" fill-opacity="0.1"/>
<path d="M56.0001 111.22C51.1673 64.274 47.2696 60.3942 2.258e-05 55.6059C47.2696 50.8217 51.1673 46.9501 56.0001 0C60.7959 46.9501 64.714 50.8217 111.963 55.6059C64.714 60.3942 60.7959 64.274 56.0001 111.22Z" fill="white" fill-opacity="0.1"/>
<path d="M314.831 239.772C310.011 192.851 306.109 188.959 258.844 184.166C306.109 179.37 310.011 175.482 314.831 128.56C319.648 175.482 323.545 179.37 370.807 184.166C323.545 188.959 319.648 192.851 314.831 239.772Z" fill="white" fill-opacity="0.1"/>
<path d="M185.403 128.56C190.24 175.482 194.142 179.37 241.403 184.166C194.142 188.959 190.24 192.851 185.403 239.772C180.587 192.851 176.661 188.959 129.428 184.166C176.661 179.37 180.587 175.482 185.403 128.56Z" fill="white" fill-opacity="0.1"/>
<path d="M56.0001 128.56C60.7959 175.482 64.714 179.37 111.963 184.166C64.714 188.959 60.7959 192.851 56.0001 239.772C51.1672 192.851 47.2696 188.959 1.129e-05 184.166C47.2696 179.37 51.1672 175.482 56.0001 128.56Z" fill="white" fill-opacity="0.1"/>
<path d="M314.831 257.112C319.648 304.054 323.545 307.942 370.807 312.726C323.545 317.511 319.648 321.382 314.831 368.332C310.011 321.382 306.109 317.511 258.844 312.726C306.109 307.942 310.011 304.054 314.831 257.112Z" fill="white" fill-opacity="0.1"/>
<path d="M185.403 257.112C190.24 304.054 194.142 307.942 241.403 312.726C194.142 317.511 190.24 321.382 185.403 368.332C180.587 321.382 176.661 317.511 129.428 312.726C176.661 307.942 180.587 304.054 185.403 257.112Z" fill="white" fill-opacity="0.1"/>
<path d="M56.0001 257.112C60.7958 304.054 64.714 307.942 111.963 312.726C64.714 317.511 60.7958 321.382 56.0001 368.332C51.1672 321.382 47.2696 317.511 0 312.726C47.2696 307.942 51.1672 304.054 56.0001 257.112Z" fill="white" fill-opacity="0.1"/>
<path d="M194.142 248.44C241.403 243.648 245.305 239.772 250.117 192.851C254.942 239.772 258.844 243.648 306.109 248.44C258.844 253.241 254.942 257.112 250.117 304.054C245.305 257.112 241.403 253.241 194.142 248.44Z" fill="white" fill-opacity="0.1"/>
<path d="M64.714 248.44C111.963 243.648 115.865 239.772 120.706 192.851C125.53 239.772 129.428 243.648 176.661 248.44C129.428 253.241 125.53 257.112 120.706 304.054C115.865 257.112 111.963 253.241 64.714 248.44Z" fill="white" fill-opacity="0.1"/>
<path d="M306.109 119.888C258.844 124.685 254.942 128.56 250.117 175.482C245.305 128.56 241.403 124.685 194.142 119.888C241.403 115.092 245.305 111.22 250.117 64.274C254.942 111.22 258.844 115.092 306.109 119.888Z" fill="white" fill-opacity="0.1"/>
<path d="M176.661 119.888C129.428 124.685 125.53 128.56 120.706 175.482C115.865 128.56 111.963 124.685 64.7141 119.888C111.963 115.092 115.865 111.22 120.706 64.274C125.53 111.22 129.428 115.092 176.661 119.888Z" fill="white" fill-opacity="0.1"/>
<path d="M563.025 111.22C558.204 64.274 554.302 60.3943 507.037 55.6059C554.302 50.8217 558.204 46.9501 563.025 4.41257e-05C567.841 46.9501 571.739 50.8217 619 55.6059C571.739 60.3943 567.841 64.274 563.025 111.22Z" fill="white" fill-opacity="0.1"/>
<path d="M433.597 111.22C428.78 64.274 424.854 60.3942 377.621 55.6059C424.854 50.8217 428.78 46.9501 433.597 3.28617e-05C438.434 46.9501 442.335 50.8217 489.597 55.6059C442.335 60.3942 438.434 64.274 433.597 111.22Z" fill="white" fill-opacity="0.1"/>
<path d="M563.025 239.772C558.204 192.851 554.302 188.959 507.037 184.166C554.302 179.37 558.204 175.482 563.025 128.56C567.841 175.482 571.739 179.37 619 184.166C571.739 188.959 567.841 192.851 563.025 239.772Z" fill="white" fill-opacity="0.1"/>
<path d="M433.597 128.56C438.434 175.482 442.335 179.37 489.597 184.166C442.335 188.959 438.434 192.851 433.597 239.772C428.78 192.851 424.854 188.959 377.621 184.166C424.854 179.37 428.78 175.482 433.597 128.56Z" fill="white" fill-opacity="0.1"/>
<path d="M563.025 257.112C567.841 304.054 571.739 307.942 619 312.726C571.739 317.511 567.841 321.382 563.025 368.332C558.204 321.382 554.302 317.511 507.037 312.726C554.302 307.942 558.204 304.054 563.025 257.112Z" fill="white" fill-opacity="0.1"/>
<path d="M433.597 257.112C438.434 304.054 442.335 307.942 489.597 312.726C442.335 317.511 438.434 321.382 433.597 368.332C428.78 321.382 424.854 317.511 377.621 312.726C424.854 307.942 428.78 304.054 433.597 257.112Z" fill="white" fill-opacity="0.1"/>
<path d="M442.335 248.44C489.597 243.648 493.498 239.772 498.311 192.851C503.135 239.772 507.037 243.648 554.302 248.44C507.037 253.241 503.135 257.112 498.311 304.054C493.498 257.112 489.597 253.241 442.335 248.44Z" fill="white" fill-opacity="0.1"/>
<path d="M312.907 248.44C360.156 243.648 364.058 239.772 368.899 192.851C373.724 239.772 377.621 243.648 424.854 248.44C377.621 253.241 373.724 257.112 368.899 304.054C364.058 257.112 360.156 253.241 312.907 248.44Z" fill="white" fill-opacity="0.1"/>
<path d="M554.302 119.888C507.037 124.685 503.135 128.56 498.311 175.482C493.498 128.56 489.597 124.685 442.335 119.888C489.597 115.092 493.498 111.22 498.311 64.274C503.135 111.22 507.037 115.092 554.302 119.888Z" fill="white" fill-opacity="0.1"/>
<path d="M424.854 119.888C377.621 124.685 373.724 128.56 368.899 175.482C364.058 128.56 360.156 124.685 312.907 119.888C360.156 115.092 364.058 111.22 368.899 64.274C373.724 111.22 377.621 115.092 424.854 119.888Z" fill="white" fill-opacity="0.1"/>
</svg>
