<?xml version="1.0" encoding="UTF-8" standalone="no"?>
<!DOCTYPE svg PUBLIC "-//W3C//DTD SVG 1.1//EN" "http://www.w3.org/Graphics/SVG/1.1/DTD/svg11.dtd">
<svg width="1150" height="1021" viewBox="0 0 1150 1021" fill="none" xmlns="http://www.w3.org/2000/svg">
<path d="M786.223 658.665C752.721 625.278 747.235 624.72 707.536 650.701C741.166 617.294 741.739 611.84 715.713 572.392C749.214 605.785 754.692 606.34 794.385 580.358C760.76 613.765 760.197 619.223 786.223 658.665Z" fill="white" fill-opacity="0.1"/>
<path d="M685.827 739.98C652.328 706.591 646.823 706.048 607.15 732.008C640.754 698.623 641.346 693.153 615.317 653.708C648.834 687.088 654.315 687.64 694.008 661.658C660.383 695.065 659.816 700.526 685.827 739.98Z" fill="white" fill-opacity="0.1"/>
<path d="M585.45 821.28C551.939 787.901 546.456 787.34 506.753 813.324C540.387 779.915 540.956 774.463 514.94 735.008C548.425 768.414 553.918 768.955 593.602 742.981C559.987 776.38 559.407 781.852 585.45 821.28Z" fill="white" fill-opacity="0.1"/>
<path d="M867.721 758.381C834.235 725.013 828.741 724.446 789.04 750.424C822.662 717.008 823.224 711.54 797.216 672.115C830.699 705.486 836.187 706.053 875.888 680.081C842.266 713.491 841.71 718.959 867.721 758.381Z" fill="white" fill-opacity="0.1"/>
<path d="M696.82 753.431C730.319 786.788 735.81 787.353 775.511 761.381C741.889 794.791 741.33 800.261 767.325 839.697C733.842 806.326 728.329 805.774 688.653 831.731C722.25 798.336 722.831 792.853 696.82 753.431Z" fill="white" fill-opacity="0.1"/>
<path d="M596.443 834.731C629.91 868.114 635.414 868.669 675.106 842.704C641.493 876.107 640.921 881.587 666.948 920.997C633.452 887.637 627.962 887.066 588.257 913.047C621.883 879.628 622.441 874.164 596.443 834.731Z" fill="white" fill-opacity="0.1"/>
<path d="M878.714 771.832C912.21 805.218 917.698 805.786 957.392 779.804C923.765 813.208 923.196 818.66 949.225 858.104C915.72 824.714 910.239 824.162 870.543 850.147C904.173 816.74 904.735 811.273 878.714 771.832Z" fill="white" fill-opacity="0.1"/>
<path d="M778.318 853.147C811.83 886.521 817.321 887.086 857.015 861.104C823.387 894.508 822.815 899.962 848.828 939.42C815.327 906.027 809.827 905.491 770.156 931.454C803.761 898.069 804.342 892.586 778.318 853.147Z" fill="white" fill-opacity="0.1"/>
<path d="M677.941 934.447C711.421 967.847 716.925 968.401 756.609 942.427C722.991 975.823 722.407 981.288 748.451 1020.72C714.938 987.337 709.46 986.783 669.76 1012.77C703.394 979.361 703.952 973.896 677.941 934.447Z" fill="white" fill-opacity="0.1"/>
<path d="M779.599 840.93C813.221 807.52 813.79 802.063 787.776 762.643C821.266 796.008 826.749 796.563 866.451 770.585C832.831 804.004 832.259 809.459 858.276 848.902C824.784 815.513 819.303 814.961 779.599 840.93Z" fill="white" fill-opacity="0.1"/>
<path d="M679.203 922.246C712.815 888.843 713.385 883.386 687.393 843.948C720.882 877.313 726.363 877.871 766.039 851.913C732.444 885.312 731.875 890.764 757.893 930.207C724.378 896.836 718.897 896.285 679.203 922.246Z" fill="white" fill-opacity="0.1"/>
<path d="M784.953 670.868C751.33 704.284 750.76 709.742 776.765 749.17C743.285 715.797 737.802 715.242 698.101 741.214C731.72 707.8 732.292 702.346 706.262 662.907C739.767 696.291 745.248 696.843 784.953 670.868Z" fill="white" fill-opacity="0.1"/>
<path d="M684.54 752.197C650.943 785.592 650.377 791.047 676.382 830.475C642.88 797.12 637.396 796.565 597.705 822.529C631.314 789.124 631.886 783.669 605.879 744.212C639.384 777.596 644.862 778.151 684.54 752.197Z" fill="white" fill-opacity="0.1"/>
<path d="M978.744 502.733C945.243 469.346 939.757 468.788 900.057 494.769C933.688 461.362 934.26 455.908 908.234 416.461C941.735 449.853 947.213 450.408 986.906 424.426C953.282 457.833 952.718 463.291 978.744 502.733Z" fill="white" fill-opacity="0.1"/>
<path d="M878.348 584.048C844.85 550.659 839.344 550.116 799.671 576.077C833.276 542.691 833.867 537.221 807.838 497.776C841.355 531.156 846.836 531.708 886.529 505.726C852.905 539.133 852.338 544.594 878.348 584.048Z" fill="white" fill-opacity="0.1"/>
<path d="M1060.24 602.45C1026.76 569.082 1021.26 568.514 981.561 594.492C1015.18 561.076 1015.75 555.609 989.737 516.184C1023.22 549.554 1028.71 550.121 1068.41 524.149C1034.79 557.559 1034.23 563.027 1060.24 602.45Z" fill="white" fill-opacity="0.1"/>
<path d="M889.341 597.499C922.84 630.857 928.332 631.421 968.033 605.449C934.411 638.859 933.851 644.33 959.846 683.765C926.364 650.394 920.85 649.842 881.174 675.8C914.771 642.404 915.352 636.922 889.341 597.499Z" fill="white" fill-opacity="0.1"/>
<path d="M1071.24 615.9C1104.73 649.287 1110.22 649.854 1149.91 623.872C1116.29 657.276 1115.72 662.728 1141.75 702.173C1108.24 668.782 1102.76 668.231 1063.06 694.215C1096.69 660.808 1097.26 655.341 1071.24 615.9Z" fill="white" fill-opacity="0.1"/>
<path d="M970.84 697.216C1004.35 730.589 1009.84 731.154 1049.54 705.172C1015.91 738.576 1015.34 744.03 1041.35 783.488C1007.85 750.095 1002.35 749.559 962.678 775.523C996.282 742.137 996.863 736.654 970.84 697.216Z" fill="white" fill-opacity="0.1"/>
<path d="M972.12 684.999C1005.74 651.588 1006.31 646.131 980.298 606.711C1013.79 640.076 1019.27 640.631 1058.97 614.653C1025.35 648.072 1024.78 653.527 1050.8 692.97C1017.3 659.581 1011.82 659.029 972.12 684.999Z" fill="white" fill-opacity="0.1"/>
<path d="M871.724 766.314C905.336 732.912 905.906 727.454 879.914 688.016C913.403 721.381 918.884 721.939 958.56 695.982C924.965 729.38 924.397 734.832 950.414 774.275C916.899 740.905 911.418 740.353 871.724 766.314Z" fill="white" fill-opacity="0.1"/>
<path d="M977.474 514.937C943.851 548.353 943.282 553.81 969.286 593.238C935.807 559.865 930.323 559.31 890.622 585.282C924.241 551.868 924.813 546.414 898.784 506.975C932.289 540.36 937.77 540.911 977.474 514.937Z" fill="white" fill-opacity="0.1"/>
<path d="M877.062 596.265C843.465 629.66 842.898 635.115 868.903 674.543C835.401 641.188 829.917 640.633 790.226 666.597C823.836 633.192 824.408 627.737 798.4 588.28C831.905 621.665 837.383 622.219 877.062 596.265Z" fill="white" fill-opacity="0.1"/>
<path d="M533.991 451C500.49 417.613 495.004 417.054 455.305 443.035C488.935 409.629 489.507 404.175 463.481 364.727C496.982 398.12 502.46 398.674 542.153 372.693C508.529 406.1 507.965 411.558 533.991 451Z" fill="white" fill-opacity="0.1"/>
<path d="M433.595 532.315C400.097 498.925 394.592 498.383 354.918 524.343C388.523 490.957 389.114 485.487 363.085 446.043C396.602 479.423 402.083 479.974 441.776 453.993C408.152 487.4 407.585 492.861 433.595 532.315Z" fill="white" fill-opacity="0.1"/>
<path d="M333.218 613.615C299.707 580.236 294.224 579.675 254.522 605.659C288.155 572.25 288.724 566.798 262.708 527.343C296.193 560.748 301.687 561.29 341.371 535.316C307.756 568.715 307.176 574.186 333.218 613.615Z" fill="white" fill-opacity="0.1"/>
<path d="M615.49 550.716C582.004 517.348 576.51 516.781 536.808 542.758C570.431 509.342 570.992 503.875 544.985 464.45C578.467 497.821 583.956 498.388 623.657 472.416C590.035 505.826 589.479 511.294 615.49 550.716Z" fill="white" fill-opacity="0.1"/>
<path d="M444.589 545.766C478.087 579.123 483.579 579.688 523.28 553.716C489.658 587.126 489.099 592.596 515.094 632.032C481.611 598.661 476.098 598.109 436.421 624.066C470.018 590.671 470.599 585.188 444.589 545.766Z" fill="white" fill-opacity="0.1"/>
<path d="M344.212 627.066C377.678 660.449 383.183 661.003 422.874 635.039C389.262 668.441 388.69 673.922 414.717 713.332C381.221 679.971 375.73 679.401 336.025 705.382C369.651 671.963 370.21 666.498 344.212 627.066Z" fill="white" fill-opacity="0.1"/>
<path d="M626.483 564.167C659.979 597.553 665.467 598.12 705.16 572.139C671.533 605.543 670.964 610.995 696.993 650.439C663.489 617.049 658.008 616.497 618.311 642.481C651.942 609.075 652.503 603.608 626.483 564.167Z" fill="white" fill-opacity="0.1"/>
<path d="M526.087 645.482C559.599 678.856 565.09 679.42 604.783 653.439C571.156 686.843 570.584 692.297 596.597 731.755C563.096 698.362 557.596 697.826 517.925 723.789C551.53 690.403 552.111 684.921 526.087 645.482Z" fill="white" fill-opacity="0.1"/>
<path d="M425.71 726.782C459.19 760.182 464.694 760.736 504.377 734.762C470.76 768.158 470.175 773.623 496.22 813.055C462.706 779.672 457.228 779.118 417.529 805.105C451.162 771.696 451.721 766.231 425.71 726.782Z" fill="white" fill-opacity="0.1"/>
<path d="M527.367 633.265C560.989 599.855 561.559 594.397 535.545 554.977C569.034 588.343 574.518 588.898 614.219 562.92C580.599 596.339 580.027 601.793 606.045 641.237C572.552 607.848 567.071 607.296 527.367 633.265Z" fill="white" fill-opacity="0.1"/>
<path d="M426.971 714.581C460.584 681.178 461.153 675.721 435.161 636.283C468.651 669.648 474.131 670.205 513.807 644.248C480.213 677.647 479.644 683.099 505.661 722.542C472.146 689.171 466.665 688.619 426.971 714.581Z" fill="white" fill-opacity="0.1"/>
<path d="M532.721 463.203C499.098 496.619 498.529 502.077 524.533 541.504C491.054 508.131 485.57 507.576 445.869 533.549C479.489 500.135 480.061 494.681 454.031 455.242C487.536 488.626 493.017 489.178 532.721 463.203Z" fill="white" fill-opacity="0.1"/>
<path d="M432.309 544.532C398.712 577.927 398.146 583.382 424.15 622.81C390.648 589.455 385.165 588.9 345.473 614.864C379.083 581.458 379.655 576.004 353.648 536.547C387.152 569.931 392.63 570.486 432.309 544.532Z" fill="white" fill-opacity="0.1"/>
<path d="M726.513 295.068C693.011 261.681 687.525 261.122 647.826 287.104C681.456 253.697 682.028 248.243 656.003 208.795C689.504 242.188 694.981 242.743 734.675 216.761C701.05 250.168 700.486 255.626 726.513 295.068Z" fill="white" fill-opacity="0.1"/>
<path d="M626.117 376.383C592.618 342.994 587.113 342.451 547.439 368.411C581.044 335.026 581.635 329.556 555.606 290.111C589.123 323.491 594.604 324.043 634.298 298.061C600.673 331.468 600.106 336.929 626.117 376.383Z" fill="white" fill-opacity="0.1"/>
<path d="M808.011 394.784C774.525 361.416 769.031 360.849 729.329 386.827C762.952 353.411 763.514 347.943 737.506 308.518C770.989 341.889 776.477 342.456 816.178 316.484C782.556 349.894 782 355.362 808.011 394.784Z" fill="white" fill-opacity="0.1"/>
<path d="M637.11 389.834C670.609 423.191 676.1 423.756 715.801 397.784C682.179 431.194 681.62 436.664 707.615 476.1C674.132 442.729 668.619 442.177 628.943 468.134C662.54 434.739 663.121 429.256 637.11 389.834Z" fill="white" fill-opacity="0.1"/>
<path d="M819.004 408.235C852.5 441.622 857.988 442.189 897.681 416.207C864.054 449.611 863.485 455.063 889.514 494.507C856.01 461.117 850.529 460.565 810.833 486.55C844.463 453.143 845.025 447.676 819.004 408.235Z" fill="white" fill-opacity="0.1"/>
<path d="M718.608 489.55C752.12 522.924 757.611 523.489 797.305 497.507C763.677 530.911 763.105 536.365 789.118 575.823C755.617 542.43 750.117 541.894 710.446 567.857C744.051 534.472 744.632 528.989 718.608 489.55Z" fill="white" fill-opacity="0.1"/>
<path d="M719.889 477.333C753.511 443.923 754.08 438.465 728.066 399.046C761.555 432.411 767.039 432.966 806.741 406.988C773.121 440.407 772.549 445.862 798.566 485.305C765.073 451.916 759.592 451.364 719.889 477.333Z" fill="white" fill-opacity="0.1"/>
<path d="M619.492 558.649C653.105 525.246 653.674 519.789 627.683 480.351C661.172 513.716 666.652 514.274 706.328 488.316C672.734 521.715 672.165 527.167 698.183 566.61C664.668 533.239 659.187 532.688 619.492 558.649Z" fill="white" fill-opacity="0.1"/>
<path d="M725.242 307.271C691.62 340.687 691.05 346.145 717.055 385.573C683.575 352.199 678.091 351.644 638.39 377.617C672.01 344.203 672.582 338.749 646.552 299.31C680.057 332.694 685.538 333.246 725.242 307.271Z" fill="white" fill-opacity="0.1"/>
<path d="M624.83 388.6C591.233 421.995 590.667 427.45 616.671 466.878C583.169 433.523 577.686 432.968 537.994 458.932C571.604 425.526 572.176 420.072 546.169 380.615C579.674 413.999 585.152 414.554 624.83 388.6Z" fill="white" fill-opacity="0.1"/>
<path d="M279.722 242.418C246.22 209.031 240.734 208.473 201.035 234.454C234.666 201.048 235.238 195.593 209.212 156.146C242.713 189.539 248.191 190.093 287.884 164.111C254.259 197.518 253.696 202.977 279.722 242.418Z" fill="white" fill-opacity="0.1"/>
<path d="M179.326 323.734C145.828 290.344 140.322 289.801 100.649 315.762C134.253 282.376 134.845 276.906 108.816 237.461C142.333 270.841 147.814 271.393 187.507 245.411C153.882 278.818 153.316 284.279 179.326 323.734Z" fill="white" fill-opacity="0.1"/>
<path d="M78.949 405.034C45.4378 371.654 39.9548 371.094 0.252519 397.077C33.8861 363.668 34.455 358.216 8.43878 318.761C41.9238 352.167 47.4175 352.708 87.1012 326.735C53.4863 360.134 52.9066 365.605 78.949 405.034Z" fill="white" fill-opacity="0.1"/>
<path d="M361.22 342.135C327.734 308.767 322.24 308.199 282.539 334.177C316.161 300.761 316.723 295.294 290.715 255.869C324.198 289.239 329.686 289.807 369.387 263.834C335.765 297.245 335.209 302.712 361.22 342.135Z" fill="white" fill-opacity="0.1"/>
<path d="M190.319 337.184C223.818 370.542 229.309 371.106 269.01 345.134C235.388 378.545 234.829 384.015 260.824 423.45C227.341 390.08 221.828 389.528 182.152 415.485C215.749 382.09 216.33 376.607 190.319 337.184Z" fill="white" fill-opacity="0.1"/>
<path d="M89.9422 418.484C123.409 451.868 128.913 452.422 168.605 426.458C134.992 459.86 134.42 465.341 160.447 504.75C126.952 471.39 121.461 470.82 81.7559 496.8C115.382 463.382 115.94 457.917 89.9422 418.484Z" fill="white" fill-opacity="0.1"/>
<path d="M372.214 355.586C405.709 388.972 411.197 389.539 450.891 363.557C417.264 396.961 416.695 402.413 442.724 441.858C409.22 408.468 403.739 407.916 364.042 433.9C397.672 400.494 398.234 395.026 372.214 355.586Z" fill="white" fill-opacity="0.1"/>
<path d="M271.817 436.901C305.329 470.274 310.821 470.839 350.514 444.857C316.887 478.261 316.315 483.716 342.328 523.173C308.827 489.781 303.326 489.244 263.656 515.208C297.26 481.822 297.841 476.339 271.817 436.901Z" fill="white" fill-opacity="0.1"/>
<path d="M171.44 518.201C204.92 551.6 210.424 552.154 250.108 526.181C216.49 559.577 215.906 565.041 241.951 604.473C208.437 571.091 202.959 570.536 163.259 596.523C196.893 563.114 197.451 557.65 171.44 518.201Z" fill="white" fill-opacity="0.1"/>
<path d="M273.098 424.684C306.72 391.274 307.289 385.816 281.275 346.396C314.765 379.761 320.248 380.316 359.95 354.338C326.33 387.758 325.758 393.212 351.775 432.656C318.283 399.267 312.802 398.715 273.098 424.684Z" fill="white" fill-opacity="0.1"/>
<path d="M172.702 505.999C206.314 472.597 206.884 467.139 180.892 427.701C214.381 461.067 219.862 461.624 259.538 435.667C225.943 469.065 225.374 474.517 251.392 513.961C217.877 480.59 212.396 480.038 172.702 505.999Z" fill="white" fill-opacity="0.1"/>
<path d="M278.452 254.622C244.829 288.038 244.26 293.495 270.264 332.923C236.784 299.55 231.301 298.995 191.6 324.967C225.219 291.554 225.791 286.099 199.762 246.66C233.266 280.045 238.747 280.597 278.452 254.622Z" fill="white" fill-opacity="0.1"/>
<path d="M178.04 335.95C144.443 369.346 143.876 374.801 169.881 414.228C136.379 380.873 130.895 380.318 91.2036 406.283C124.813 372.877 125.385 367.423 99.3782 327.965C132.883 361.35 138.361 361.904 178.04 335.95Z" fill="white" fill-opacity="0.1"/>
<path d="M472.243 86.4863C438.742 53.0993 433.256 52.5411 393.557 78.5223C427.187 45.1158 427.759 39.6613 401.733 0.214045C435.234 33.6068 440.712 34.1612 480.405 8.1795C446.781 41.5866 446.217 47.0448 472.243 86.4863Z" fill="white" fill-opacity="0.1"/>
<path d="M371.847 167.802C338.349 134.412 332.843 133.87 293.17 159.83C326.775 126.444 327.366 120.974 301.337 81.5295C334.854 114.909 340.335 115.461 380.028 89.4795C346.404 122.887 345.837 128.347 371.847 167.802Z" fill="white" fill-opacity="0.1"/>
<path d="M553.742 186.203C520.256 152.835 514.762 152.267 475.06 178.245C508.683 144.829 509.244 139.362 483.237 99.937C516.719 133.308 522.208 133.875 561.909 107.903C528.287 141.313 527.731 146.781 553.742 186.203Z" fill="white" fill-opacity="0.1"/>
<path d="M382.84 181.252C416.339 214.61 421.831 215.175 461.532 189.202C427.91 222.613 427.351 228.083 453.345 267.518C419.863 234.148 414.349 233.596 374.673 259.553C408.27 226.158 408.851 220.675 382.84 181.252Z" fill="white" fill-opacity="0.1"/>
<path d="M564.735 199.654C598.231 233.04 603.719 233.607 643.412 207.626C609.785 241.029 609.216 246.481 635.245 285.926C601.741 252.536 596.26 251.984 556.563 277.968C590.194 244.562 590.755 239.095 564.735 199.654Z" fill="white" fill-opacity="0.1"/>
<path d="M464.339 280.969C497.85 314.343 503.342 314.907 543.035 288.925C509.408 322.329 508.836 327.784 534.849 367.241C501.348 333.849 495.848 333.312 456.177 359.276C489.782 325.89 490.362 320.407 464.339 280.969Z" fill="white" fill-opacity="0.1"/>
<path d="M465.619 268.752C499.241 235.342 499.811 229.884 473.797 190.464C507.286 223.83 512.77 224.385 552.471 198.407C518.851 231.826 518.279 237.28 544.296 276.724C510.804 243.335 505.323 242.783 465.619 268.752Z" fill="white" fill-opacity="0.1"/>
<path d="M365.223 350.067C398.836 316.665 399.405 311.207 373.413 271.769C406.903 305.135 412.383 305.692 452.059 279.735C418.465 313.133 417.896 318.585 443.913 358.029C410.398 324.658 404.917 324.106 365.223 350.067Z" fill="white" fill-opacity="0.1"/>
<path d="M470.973 98.69C437.35 132.106 436.781 137.564 462.785 176.991C429.306 143.618 423.822 143.063 384.121 169.035C417.74 135.622 418.312 130.167 392.283 90.7285C425.788 124.113 431.269 124.665 470.973 98.69Z" fill="white" fill-opacity="0.1"/>
<path d="M370.561 180.018C336.964 213.414 336.398 218.869 362.402 258.296C328.9 224.941 323.416 224.386 283.725 250.351C317.335 216.945 317.907 211.491 291.9 172.034C325.404 205.418 330.882 205.972 370.561 180.018Z" fill="white" fill-opacity="0.1"/>
</svg>
