<svg width="23" height="23" viewBox="0 0 23 23" fill="none" xmlns="http://www.w3.org/2000/svg">
<path d="M19.0557 0.676713C19.958 -0.225557 21.4208 -0.225557 22.3231 0.676713C23.2254 1.57898 23.2254 3.04185 22.3231 3.94412L3.94408 22.3233C3.04182 23.2256 1.57896 23.2256 0.676697 22.3233C-0.225565 21.421 -0.225566 19.9582 0.676697 19.0559L19.0557 0.676713Z" fill="#959595"/>
<path d="M0.676902 3.94411C-0.22536 3.04184 -0.22536 1.57897 0.676902 0.676703C1.57916 -0.225567 3.04202 -0.225568 3.94428 0.676702L22.3233 19.0559C23.2256 19.9581 23.2256 21.421 22.3233 22.3233C21.421 23.2256 19.9582 23.2256 19.0559 22.3233L0.676902 3.94411Z" fill="#959595"/>
</svg>
