<svg width="76" height="76" viewBox="0 0 76 76" fill="none" xmlns="http://www.w3.org/2000/svg">
<path d="M11.2842 15.5727H34.5037C35.4161 15.5727 36.1531 14.8326 36.1531 13.9187C36.1531 13.0048 35.4161 12.2646 34.5037 12.2646H11.2842C10.3718 12.2646 9.63485 13.0048 9.63485 13.9187C9.63485 14.8326 10.3729 15.5727 11.2842 15.5727Z" fill="url(#paint0_linear)"/>
<path d="M11.2842 24.6764H45.8706C46.7819 24.6764 47.52 23.9362 47.52 23.0223C47.52 22.1084 46.7819 21.3683 45.8706 21.3683H11.2842C10.3718 21.3683 9.63485 22.1084 9.63485 23.0223C9.63485 23.9362 10.3729 24.6764 11.2842 24.6764Z" fill="url(#paint1_linear)"/>
<path d="M11.2842 33.7801H45.8706C46.7819 33.7801 47.52 33.0387 47.52 32.1249C47.52 31.2121 46.7819 30.4708 45.8706 30.4708H11.2842C10.3718 30.4708 9.63485 31.2121 9.63485 32.1249C9.63485 33.0387 10.3729 33.7801 11.2842 33.7801Z" fill="url(#paint2_linear)"/>
<path d="M76 28.7702C76 28.332 75.8268 27.9108 75.5166 27.6008L69.9107 21.9802C69.2677 21.3342 68.2228 21.3342 67.5776 21.9802L57.8918 31.6912V13.9187C57.8918 13.8131 57.8804 13.7086 57.8612 13.6076C57.8601 13.6031 57.8601 13.5985 57.8601 13.594C57.8318 13.4543 57.7808 13.3227 57.7186 13.1955C57.7016 13.1626 57.6857 13.1319 57.6676 13.1001C57.5963 12.9741 57.5125 12.8538 57.4084 12.7493L45.9656 1.26845C45.8615 1.164 45.7426 1.08227 45.617 1.00961C45.5853 0.99031 45.5536 0.97328 45.5208 0.957386C45.394 0.894947 45.2615 0.842725 45.1211 0.815479C45.12 0.815479 45.1189 0.815479 45.1177 0.815479C45.0136 0.795044 44.9061 0.783691 44.7985 0.783691H1.64939C0.736964 0.783691 0 1.52388 0 2.43777V73.7912C0 74.7051 0.736964 75.4453 1.64939 75.4453H56.2446C57.1571 75.4453 57.894 74.7051 57.894 73.7912V47.6121L75.5177 29.9395C75.8268 29.6296 76 29.2084 76 28.7702ZM52.2621 12.2646H46.449V6.43275L52.2621 12.2646ZM54.5941 72.1383H3.29879V4.09298H43.1502V13.9187C43.1502 14.8326 43.8872 15.5727 44.7996 15.5727H54.5941V34.9993L32.4943 57.1574C32.029 57.4594 31.7369 57.9804 31.7369 58.5503V62.5703H28.9091L28.9125 56.7339C28.9125 56.122 28.5763 55.5612 28.0374 55.2728C27.4997 54.9879 26.8476 55.0197 26.3416 55.3614L20.8116 59.0953L22.6274 52.6004C22.8198 51.9136 22.5504 51.1791 21.9595 50.7806C21.3685 50.3821 20.5897 50.4082 20.0271 50.8465L8.46205 59.8502C7.74207 60.4099 7.61189 61.4498 8.16999 62.1707C8.72922 62.8916 9.76278 63.0267 10.485 62.4636L18.1014 56.5341L16.4249 62.5317C16.2381 63.1992 16.486 63.9133 17.0475 64.3186C17.6067 64.7239 18.3607 64.7375 18.9346 64.3493L25.6126 59.8411L25.6092 64.2221C25.6092 64.6615 25.7824 65.0815 26.0926 65.3926C26.4016 65.7014 26.8216 65.8762 27.2586 65.8762H39.0466C39.5798 65.8762 40.0643 65.6105 40.3677 65.186L54.5952 50.9191L54.5941 72.1383ZM38.3107 62.5703H35.0369V59.2883L68.7458 25.4881L72.0186 28.7702L38.3107 62.5703Z" fill="url(#paint3_linear)"/>
<defs>
<linearGradient id="paint0_linear" x1="38" y1="0.783691" x2="38" y2="75.4453" gradientUnits="userSpaceOnUse">
<stop stop-color="#FF3B2F"/>
<stop offset="1" stop-color="#FFCA0C"/>
</linearGradient>
<linearGradient id="paint1_linear" x1="38" y1="0.783691" x2="38" y2="75.4453" gradientUnits="userSpaceOnUse">
<stop stop-color="#FF3B2F"/>
<stop offset="1" stop-color="#FFCA0C"/>
</linearGradient>
<linearGradient id="paint2_linear" x1="38" y1="0.783691" x2="38" y2="75.4453" gradientUnits="userSpaceOnUse">
<stop stop-color="#FF3B2F"/>
<stop offset="1" stop-color="#FFCA0C"/>
</linearGradient>
<linearGradient id="paint3_linear" x1="38" y1="0.783691" x2="38" y2="75.4453" gradientUnits="userSpaceOnUse">
<stop stop-color="#FF3B2F"/>
<stop offset="1" stop-color="#FFCA0C"/>
</linearGradient>
</defs>
</svg>
