<svg width="111" height="53" viewBox="0 0 111 53" fill="none" xmlns="http://www.w3.org/2000/svg">
<path d="M0.671563 52.0001V46.5601H12.3516V8.96012H3.07156V4.72012C5.41823 4.29345 7.4449 3.78679 9.15156 3.20012C10.9116 2.56012 12.4849 1.81345 13.8716 0.960121H18.9116V46.5601H29.4716V52.0001H0.671563ZM54.1172 52.9601C51.7172 52.9601 49.4772 52.6135 47.3972 51.9201C45.3705 51.2268 43.6105 50.2668 42.1172 49.0401C40.6772 47.7601 39.5305 46.2668 38.6772 44.5601C37.8239 42.8535 37.3972 40.9868 37.3972 38.9601C37.3972 37.3068 37.6639 35.7868 38.1972 34.4001C38.7839 32.9601 39.5039 31.6801 40.3572 30.5601C41.2639 29.3868 42.2772 28.3735 43.3972 27.5201C44.5705 26.6135 45.7705 25.8401 46.9972 25.2001V24.8801C45.1305 23.5468 43.4772 21.9468 42.0372 20.0801C40.5972 18.1601 39.8772 15.8401 39.8772 13.1201C39.8772 11.1468 40.2505 9.36012 40.9972 7.76012C41.7439 6.16012 42.7572 4.80012 44.0372 3.68012C45.3172 2.50679 46.8372 1.60012 48.5972 0.960121C50.3572 0.32012 52.2772 0.000119209 54.3572 0.000119209C56.5972 0.000119209 58.5972 0.346786 60.3572 1.04012C62.1172 1.68012 63.6105 2.61345 64.8372 3.84012C66.1172 5.01345 67.0772 6.45345 67.7172 8.16012C68.4105 9.81345 68.7572 11.6268 68.7572 13.6001C68.7572 14.9335 68.5172 16.2135 68.0372 17.4401C67.6105 18.6668 67.0505 19.8135 66.3572 20.8801C65.7172 21.9468 64.9705 22.9068 64.1172 23.7601C63.3172 24.6135 62.5172 25.3335 61.7172 25.9201V26.2401C62.8372 26.8801 63.9305 27.6268 64.9972 28.4801C66.0639 29.2801 66.9972 30.2135 67.7972 31.2801C68.6505 32.2935 69.3172 33.4668 69.7972 34.8001C70.3305 36.1335 70.5972 37.6535 70.5972 39.3601C70.5972 41.2801 70.1972 43.0668 69.3972 44.7201C68.5972 46.3735 67.4772 47.8135 66.0372 49.0401C64.5972 50.2668 62.8639 51.2268 60.8372 51.9201C58.8105 52.6135 56.5705 52.9601 54.1172 52.9601ZM57.7172 24.1601C59.4239 22.6135 60.7305 20.9868 61.6372 19.2801C62.5972 17.5735 63.0772 15.7868 63.0772 13.9201C63.0772 11.3601 62.3039 9.22678 60.7572 7.52012C59.2105 5.76012 57.0239 4.88012 54.1972 4.88012C51.7972 4.88012 49.8239 5.62678 48.2772 7.12012C46.7305 8.61345 45.9572 10.6135 45.9572 13.1201C45.9572 14.6668 46.2772 16.0001 46.9172 17.1201C47.5572 18.1868 48.4105 19.1468 49.4772 20.0001C50.5972 20.8535 51.8505 21.6268 53.2372 22.3201C54.6772 22.9601 56.1705 23.5735 57.7172 24.1601ZM54.2772 48.0801C57.2639 48.0801 59.6639 47.2535 61.4772 45.6001C63.3439 43.9468 64.2772 41.7868 64.2772 39.1201C64.2772 37.4668 63.9039 36.0535 63.1572 34.8801C62.4105 33.7068 61.3972 32.6935 60.1172 31.8401C58.8372 30.9335 57.3439 30.1335 55.6372 29.4401C53.9839 28.6935 52.2505 27.9468 50.4372 27.2001C48.4105 28.5868 46.7039 30.2135 45.3172 32.0801C43.9839 33.8935 43.3172 35.9735 43.3172 38.3201C43.3172 39.7601 43.5839 41.0668 44.1172 42.2401C44.7039 43.4135 45.4772 44.4535 46.4372 45.3601C47.4505 46.2135 48.6239 46.8801 49.9572 47.3601C51.2905 47.8401 52.7305 48.0801 54.2772 48.0801ZM91.1628 43.6801V28.0801H76.6028V23.1201H91.1628V7.52012H96.3628V23.1201H110.923V28.0801H96.3628V43.6801H91.1628Z" fill="url(#paint0_linear)"/>
<defs>
<linearGradient id="paint0_linear" x1="54" y1="13.0001" x2="54" y2="57.0001" gradientUnits="userSpaceOnUse">
<stop stop-color="#FF3B2F"/>
<stop offset="1" stop-color="#FFCA0C"/>
</linearGradient>
</defs>
</svg>
