<svg width="64" height="83" viewBox="0 0 64 83" fill="none" xmlns="http://www.w3.org/2000/svg">
<path d="M15.584 42.0957L15.5365 42.144L16.4896 43.1765C20.2378 47.2368 25.44 49.6735 30.9025 49.9622C31.2667 49.9815 31.632 49.9912 31.9981 49.9912C31.9988 49.9912 31.9993 49.9911 32 49.9911C32.7319 49.991 33.4612 49.9522 34.1835 49.8759C34.9069 49.7996 35.6242 49.6856 36.3326 49.5354C36.6867 49.4602 37.0387 49.376 37.3881 49.2828C41.2314 48.2583 44.7626 46.1538 47.5109 43.1765L48.4626 42.145L48.4155 42.0971C51.4818 38.2962 53.1719 33.5786 53.1719 28.6446C53.1719 23.7132 51.4821 18.9972 48.4154 15.1956L48.4626 15.1476L47.5109 14.1165C43.5159 9.78829 37.8653 7.30524 32.0073 7.30262C32.005 7.30262 32.0028 7.3019 32.0005 7.3019C31.9987 7.3019 31.997 7.30244 31.9952 7.30244C30.5315 7.30262 29.0808 7.45776 27.6655 7.75813C23.4168 8.65966 19.4878 10.8686 16.4896 14.1165L15.5379 15.1476L15.5854 15.1959C12.5191 18.9962 10.8291 23.7125 10.8291 28.6446C10.8291 33.5778 12.5183 38.2946 15.584 42.0957ZM19.8385 14.9209C20.0194 14.7574 20.2081 14.606 20.3942 14.4505C20.6717 14.2186 20.9512 13.99 21.2398 13.7763C21.4416 13.6269 21.6488 13.4867 21.8558 13.3463C22.1438 13.1509 22.4353 12.9618 22.7328 12.7842C22.9502 12.6544 23.1703 12.5304 23.3925 12.4101C23.6947 12.2467 24.0013 12.0931 24.3118 11.9476C24.5395 11.8408 24.768 11.7359 24.9999 11.6389C25.3201 11.5051 25.6458 11.3853 25.9735 11.2703C26.1099 11.2225 26.2466 11.1755 26.3842 11.1309C25.2696 12.8611 24.3463 15.1148 23.6687 17.761C22.2312 17.0461 20.8775 16.146 19.6634 15.0925C19.723 15.0372 19.7783 14.9754 19.8385 14.9209ZM38.9871 11.6576C39.2199 11.755 39.4493 11.86 39.678 11.9669C39.9907 12.1132 40.2996 12.2675 40.6039 12.4313C40.8279 12.5519 41.0498 12.676 41.2688 12.806C41.5671 12.983 41.8588 13.1712 42.1472 13.3652C42.3566 13.5062 42.5661 13.6467 42.7698 13.7964C43.056 14.0067 43.3322 14.2314 43.6065 14.4588C43.7958 14.6157 43.988 14.7684 44.1713 14.9333C44.2288 14.9849 44.2807 15.0432 44.3375 15.0956C43.1176 16.1587 41.7778 17.0505 40.3331 17.7645C39.6589 15.1301 38.7408 12.8856 37.6332 11.158C37.7578 11.1989 37.8816 11.2413 38.0052 11.2848C38.3356 11.4012 38.6639 11.5225 38.9871 11.6576ZM44.1718 42.3589C43.9878 42.5245 43.7947 42.6778 43.6046 42.8354C43.3316 43.0617 43.0568 43.2853 42.772 43.4947C42.5661 43.6461 42.3543 43.7881 42.1427 43.9304C41.8569 44.1227 41.5679 44.3092 41.2724 44.4847C41.0508 44.6163 40.8262 44.7419 40.5996 44.8638C40.2984 45.026 39.9927 45.1787 39.6832 45.3236C39.4515 45.4321 39.2189 45.5385 38.9829 45.6371C38.6631 45.7708 38.338 45.8909 38.0111 46.0062C37.8855 46.0505 37.7597 46.0935 37.6332 46.1351C38.7407 44.4076 39.6589 42.1631 40.333 39.5288C41.7776 40.2427 43.1176 41.1344 44.3371 42.1975C44.2807 42.2496 44.2289 42.3075 44.1718 42.3589ZM25.0001 45.6545C24.7681 45.5575 24.5395 45.4525 24.3117 45.3457C24.0014 45.2002 23.6948 45.0468 23.3928 44.8834C23.1704 44.7631 22.95 44.6388 22.7324 44.5089C22.4353 44.3315 22.1443 44.1427 21.8567 43.9477C21.6492 43.8069 21.4416 43.6664 21.2393 43.5166C20.9512 43.3033 20.6722 43.0752 20.3952 42.8438C20.2087 42.688 20.0197 42.5364 19.8385 42.3724C19.7779 42.3177 19.7224 42.2557 19.6624 42.2C20.8866 41.1334 22.2269 40.2414 23.6681 39.5296C24.3458 42.1771 25.2695 44.4317 26.3845 46.1626C26.2466 46.118 26.1098 46.0709 25.9732 46.023C25.6457 45.908 25.3201 45.7883 25.0001 45.6545ZM31.997 10.2353L31.9981 10.2352C32.0009 10.2352 32.0037 10.2356 32.0065 10.2356C34.0656 10.2421 36.2763 13.6035 37.5695 18.8537C33.9608 19.9699 30.0426 19.9709 26.4313 18.854C27.7251 13.6015 29.9371 10.2391 31.997 10.2353ZM32.0017 47.0582C32.0011 47.0582 32.0005 47.0582 32.0005 47.0582C29.9394 47.0576 27.7263 43.6949 26.4319 38.4412C30.0459 37.3228 33.9621 37.3242 37.5694 38.4397C36.2752 43.6937 34.0621 47.0568 32.0017 47.0582ZM25.8467 21.7473C27.8376 22.3376 29.898 22.6453 31.9981 22.6453C34.1006 22.6453 36.1625 22.3374 38.1543 21.7471C38.4246 23.4338 38.6014 25.2548 38.6622 27.1801H25.3387C25.3995 25.2549 25.5764 23.4339 25.8467 21.7473ZM38.6622 30.1129C38.6014 32.0392 38.4244 33.861 38.1539 35.5484C34.1565 34.3706 29.8478 34.3697 25.8473 35.5498C25.5767 33.862 25.3996 32.0397 25.3387 30.1129H38.6622ZM40.9509 36.6123C41.2951 34.5965 41.5064 32.416 41.5707 30.1129H50.1946C49.908 33.7568 48.5605 37.2085 46.3079 40.0726C44.6966 38.6533 42.9029 37.4979 40.9509 36.6123ZM41.5707 27.1801C41.5064 24.8772 41.2951 22.6969 40.951 20.6811C42.9032 19.7954 44.6969 18.6398 46.3082 17.2205C48.5614 20.0859 49.9087 23.5377 50.1948 27.1801H41.5707ZM23.0457 20.7084C22.7043 22.7167 22.4943 24.8875 22.4303 27.1801H13.8062C14.0919 23.5426 15.4351 20.0954 17.6819 17.2335C19.2888 18.6424 21.1058 19.8241 23.0457 20.7084ZM22.4303 30.1129C22.4946 32.4163 22.706 34.597 23.0502 36.6131C21.1038 37.4947 19.3104 38.6502 17.6933 40.0734C15.4403 37.2087 14.093 33.7568 13.8063 30.1129H22.4303Z" fill="url(#paint0_linear)"/>
<path d="M62.5455 0.784668H1.45455C0.651042 0.784668 0 1.44102 0 2.25108V80.9486C0 81.7587 0.651042 82.415 1.45455 82.415H62.5455C63.349 82.415 64 81.7587 64 80.9486V2.25108C64 1.44102 63.349 0.784668 62.5455 0.784668ZM61.0909 79.4822H2.90909V3.7175H61.0909V79.4822Z" fill="url(#paint1_linear)"/>
<path d="M12.2831 61.8852H51.7178C52.5213 61.8852 53.1724 61.2289 53.1724 60.4188C53.1724 59.6088 52.5213 58.9524 51.7178 58.9524H12.2831C11.4796 58.9524 10.8286 59.6088 10.8286 60.4188C10.8286 61.2289 11.4796 61.8852 12.2831 61.8852Z" fill="url(#paint2_linear)"/>
<path d="M46.446 66.5289H17.5545C16.7509 66.5289 16.0999 67.1852 16.0999 67.9953C16.0999 68.8054 16.7509 69.4617 17.5545 69.4617H46.446C47.2495 69.4617 47.9006 68.8054 47.9006 67.9953C47.9006 67.1852 47.2495 66.5289 46.446 66.5289Z" fill="url(#paint3_linear)"/>
<defs>
<linearGradient id="paint0_linear" x1="32" y1="0.784668" x2="32" y2="82.415" gradientUnits="userSpaceOnUse">
<stop stop-color="#FF3B2F"/>
<stop offset="1" stop-color="#FFCA0C"/>
</linearGradient>
<linearGradient id="paint1_linear" x1="32" y1="0.784668" x2="32" y2="82.415" gradientUnits="userSpaceOnUse">
<stop stop-color="#FF3B2F"/>
<stop offset="1" stop-color="#FFCA0C"/>
</linearGradient>
<linearGradient id="paint2_linear" x1="32" y1="0.784668" x2="32" y2="82.415" gradientUnits="userSpaceOnUse">
<stop stop-color="#FF3B2F"/>
<stop offset="1" stop-color="#FFCA0C"/>
</linearGradient>
<linearGradient id="paint3_linear" x1="32" y1="0.784668" x2="32" y2="82.415" gradientUnits="userSpaceOnUse">
<stop stop-color="#FF3B2F"/>
<stop offset="1" stop-color="#FFCA0C"/>
</linearGradient>
</defs>
</svg>
