<svg width="67" height="67" viewBox="0 0 67 67" fill="none" xmlns="http://www.w3.org/2000/svg">
<circle cx="33.5" cy="32.6263" r="23.6263" fill="#5ACF5F"/>
<path d="M33.5 0C15.0221 0 0 15.0221 0 33.5C0 51.9779 15.0221 67 33.5 67C51.9779 67 67 51.9779 67 33.5C67 15.0221 51.9779 0 33.5 0ZM48.5221 29.6916L33.6411 44.6432C32.6537 45.6305 31.3137 46.1947 29.9737 46.1947C28.6337 46.1947 27.2937 45.7011 26.3063 44.6432L18.4779 36.8147C16.4326 34.7695 16.4326 31.4547 18.4779 29.4095C20.5232 27.3642 23.8379 27.3642 25.8832 29.4095L29.9737 33.5L41.1874 22.2158C43.2326 20.1705 46.5474 20.1705 48.5926 22.2158C50.6379 24.2611 50.5674 27.7168 48.5221 29.6916Z" fill="white"/>
</svg>
