<svg width="19" height="18" viewBox="0 0 19 18" fill="none" xmlns="http://www.w3.org/2000/svg">
<path fill-rule="evenodd" clip-rule="evenodd" d="M18.6025 14.3623L15.7822 11.5696C15.3527 11.1445 14.5867 11.1548 14.0799 11.5926L12.5306 12.9307C9.99426 12.0572 6.85289 8.94738 6.08414 6.54785L7.63349 5.20968C8.14052 4.77191 8.20448 4.0663 7.77463 3.64075L4.95428 0.848091C4.52444 0.422549 3.75877 0.433315 3.25206 0.871274L1.63276 2.26962C-1.04051 4.57817 3.66998 10.8601 5.6916 12.8618C7.71361 14.8639 14.1691 19.638 16.8421 17.3295L18.4614 15.9312C18.9684 15.4932 19.032 14.7874 18.6025 14.3623L18.6025 14.3623Z" fill="url(#paint0_linear)"/>
<defs>
<linearGradient id="paint0_linear" x1="7.36519" y1="-0.188334" x2="11.4577" y2="18.7929" gradientUnits="userSpaceOnUse">
<stop stop-color="#FF3B2F"/>
<stop offset="1" stop-color="#FFCA0C"/>
</linearGradient>
</defs>
</svg>
